<svg t="1721021514559" class="icon" viewBox="0 0 1024 1024" version="1.1" xmlns="http://www.w3.org/2000/svg" p-id="27789" width="32" height="32"><path d="M908.64 288.22h-300.7V117.33c0-10.85-8.79-19.64-19.64-19.64H115.78c-10.85 0-19.64 8.79-19.64 19.64v791.22c0 10.85 8.79 19.64 19.64 19.64h792.87c10.85 0 19.64-8.79 19.64-19.64V307.86c0-10.84-8.8-19.64-19.65-19.64z m-748.5 575.97v-702.5h383.81v702.5H160.14z m704.15 0H607.94V352.22h256.34v511.97z" fill="#ffff" p-id="27790"></path><path d="M437.42 352.68H257.54c-5.95 0-10.77-4.82-10.77-10.77v-42.45c0-5.95 4.82-10.77 10.77-10.77h179.88c5.95 0 10.77 4.82 10.77 10.77v42.45c0.01 5.95-4.82 10.77-10.77 10.77zM437.42 544.57H257.54c-5.95 0-10.77-4.82-10.77-10.77v-42.45c0-5.95 4.82-10.77 10.77-10.77h179.88c5.95 0 10.77 4.82 10.77 10.77v42.45c0.01 5.94-4.82 10.77-10.77 10.77zM437.42 736.68H257.54c-5.95 0-10.77-4.82-10.77-10.77v-42.45c0-5.95 4.82-10.77 10.77-10.77h179.88c5.95 0 10.77 4.82 10.77 10.77v42.45c0.01 5.95-4.82 10.77-10.77 10.77z" fill="#fff" p-id="27791"></path></svg>