<svg t="1721021864342" class="icon" viewBox="0 0 1024 1024" version="1.1" xmlns="http://www.w3.org/2000/svg" p-id="33654" width="32" height="32"><path d="M512 768.219c-5.156 0-10.313-1.313-14.906-4.032L103.53 537.97C89.187 529.719 84.22 511.344 92.47 497c8.25-14.344 26.625-19.313 40.969-11.063L512 703.625l378.563-217.594c14.343-8.25 32.718-3.281 40.968 11.063 8.25 14.344 3.282 32.719-11.062 40.969L526.906 764.188c-4.593 2.718-9.75 4.03-14.906 4.03z" p-id="33655" fill="#ffffff"></path><path d="M512 602.563c-5.156 0-10.313-1.313-14.906-4.032L103.53 372.313c-9.281-5.344-15.094-15.282-15.094-25.97s5.72-20.624 15.094-25.968L497.094 94.156a29.899 29.899 0 0 1 29.906 0l393.563 226.219c9.28 5.344 15.093 15.281 15.093 25.969s-5.718 20.625-15.093 25.969L526.906 598.53c-4.593 2.625-9.75 4.032-14.906 4.032z m-333.375-256.22L512 537.97l333.375-191.625L512 154.719 178.625 346.344zM512 933.876c-5.156 0-10.313-1.313-14.906-4.031L103.53 703.719c-14.344-8.25-19.312-26.625-11.062-40.969 8.25-14.344 26.625-19.313 40.969-11.063L512 869.282l378.563-217.593c14.343-8.25 32.718-3.282 40.968 11.062s3.282 32.719-11.062 40.969L526.906 929.844c-4.593 2.718-9.75 4.031-14.906 4.031z" p-id="33656" fill="#ffffff"></path></svg>