<svg t="1721022994656" class="icon" viewBox="0 0 1024 1024" version="1.1" xmlns="http://www.w3.org/2000/svg" p-id="37368" width="32" height="32"><path d="M512.5 124.4c39.9 0 78.5 7.8 114.9 23.2 35.2 14.9 66.7 36.2 93.9 63.3 27.1 27.1 48.4 58.7 63.3 93.9 15.4 36.4 23.2 75 23.2 114.9 0 30.7-12.6 72.1-36.5 120-26.6 53.4-67.5 115.5-121.3 184.6-53.1 68.2-107 127.6-137.4 160-30.5-32.5-84.4-91.9-137.4-160-53.9-69.2-94.7-131.3-121.3-184.6-23.9-47.8-36.5-89.3-36.5-120 0-39.9 7.8-78.5 23.2-114.9 14.9-35.2 36.2-66.7 63.3-93.9 27.1-27.1 58.7-48.4 93.9-63.3 36.2-15.4 74.8-23.2 114.7-23.2m0-60c-48 0-94.5 9.4-138.3 27.9-42.3 17.9-80.3 43.5-112.9 76.1-32.6 32.6-58.2 70.6-76.1 112.9-18.5 43.8-27.9 90.3-27.9 138.3 0 81.3 57.4 196.2 170.5 341.5C410.3 867.3 494.1 952 495 952.8c4.6 4.7 11 7.3 17.5 7.3 6.6 0 12.9-2.6 17.5-7.3 0.8-0.8 84.6-85.6 167.2-191.6C810.4 616 867.8 501.1 867.8 419.7c0-47.9-9.4-94.5-27.9-138.3-17.9-42.3-43.5-80.3-76.1-112.9-32.6-32.6-70.6-58.2-112.9-76.1-43.9-18.6-90.5-28-138.4-28z" p-id="37369" fill="#8992c8"></path><path d="M510.7 355c38.8 0 70.4 31.6 70.4 70.4s-31.6 70.4-70.4 70.4c-38.8 0-70.4-31.6-70.4-70.4s31.5-70.4 70.4-70.4m0-60c-71.9 0-130.4 58.5-130.4 130.4s58.5 130.4 130.4 130.4 130.4-58.5 130.4-130.4S582.6 295 510.7 295z" p-id="37370" fill="#8992c8"></path></svg>