<svg t="1721022946813" class="icon" viewBox="0 0 1024 1024" version="1.1" xmlns="http://www.w3.org/2000/svg" p-id="36238" width="32" height="32"><path d="M892.915499 191.942567 130.4961 191.942567c-36.734646 0-66.514903 29.780257-66.514903 66.514903l0 570.537208c0 36.734646 29.780257 66.514903 66.514903 66.514903l762.4194 0c36.734646 0 66.514903-29.780257 66.514903-66.514903L959.430402 258.45747C959.430402 221.721801 929.651169 191.942567 892.915499 191.942567zM864.770486 255.903298c0.517793 0 1.032516 0.013303 1.544169 0.038886L511.87925 564.945863 157.434635 255.932973c0.401136-0.01535 0.802272-0.030699 1.206478-0.030699L864.770486 255.902274zM864.770486 831.54885 158.641113 831.54885c-16.95516 0-30.699186-13.744026-30.699186-30.699186L127.941927 314.877457l362.226858 315.797409c5.995551 5.995551 13.853519 8.991792 21.710464 8.991792 7.857968 0.001023 15.715937-2.996241 21.710464-8.991792l361.879957-315.494511 0 485.668285C895.469672 817.803801 881.725646 831.54885 864.770486 831.54885z" p-id="36239" fill="#8992c8"></path></svg>