<?xml version="1.0" standalone="no"?><!DOCTYPE svg PUBLIC "-//W3C//DTD SVG 1.1//EN" "http://www.w3.org/Graphics/SVG/1.1/DTD/svg11.dtd"><svg t="1749027059859" class="icon" viewBox="0 0 1024 1024" version="1.1" xmlns="http://www.w3.org/2000/svg" p-id="29295" xmlns:xlink="http://www.w3.org/1999/xlink" width="32" height="32"><path d="M0 0h1024v1024H0z" fill="#5672cd" p-id="29296" data-spm-anchor-id="a313x.search_index.0.i13.bac03a81eKwpsG" class="selected"></path><path d="M247.2448 466.9696v318.3872c0 19.712 14.0032 35.4048 31.5648 35.4048h497.7408c17.5616 0 31.5904-15.7184 31.5904-35.4048V466.9696H247.2448z m577.0496-162.6368h-159.488l19.1488-22.272c9.5744-12.7488 15.9744-25.5488 15.9744-41.5232 0-35.1232-25.5488-63.8208-66.9696-60.672-19.1232 3.1744-35.0976 12.7488-47.8208 25.5488l-57.3952 66.9696-60.7488-66.9696c-12.7232-12.7232-28.6976-22.272-47.8464-25.5232-41.4976-3.1744-66.9696 25.5232-66.9696 60.6464 0 15.9744 6.4 31.8464 15.9744 41.4976l19.1488 22.2976H227.7376c-12.7232 0-22.2976 9.5744-22.2976 25.5488v105.216h638.0032v-105.3184c3.2512-12.7232-6.3232-25.4464-19.1488-25.4464z m-328.5248 3.1744h-63.7952l-38.3488-41.5232c-12.7232-12.7232-12.7232-31.872 0-44.672 12.7232-12.7232 28.672-12.7232 41.4976 0l54.272 60.6464c6.4 6.4 9.5488 15.9744 6.4 25.5488z m124.3904-3.1744h-60.672c-3.1488-9.5488 0-22.272 6.4-31.8464l54.272-60.672c12.7232-12.6976 28.672-12.6976 41.4976 0 12.7232 12.7488 12.7232 31.872 0 44.6976l-41.4976 47.8208zM435.2 640a102.4 102.4 0 1 1 204.8 0 102.4 102.4 0 0 1-204.8 0z m109.5168 7.1168h46.3872c5.7088 0 10.496-3.2512 10.496-7.1168 0-3.9424-4.7872-7.1168-10.496-7.1168h-46.3872V586.496c0-5.8368-3.2512-10.496-7.1168-10.496-3.9424 0-7.1168 4.7872-7.1168 10.496v46.3872H484.096c-5.8368 0-10.496 3.2512-10.496 7.1168 0 3.9424 4.7872 7.1168 10.496 7.1168h46.3872v46.3872c0 5.7088 3.2512 10.496 7.1168 10.496 3.9424 0 7.1168-4.7872 7.1168-10.496v-46.3872z" fill="#FFFFFF" p-id="29297"></path></svg>