<svg t="1721022873336" class="icon" viewBox="0 0 1024 1024" version="1.1" xmlns="http://www.w3.org/2000/svg" p-id="35139" id="mx_n_1721022873338" width="32" height="32"><path d="M751.1 966.3c-16.6 0-32.2-2.6-46.2-7.7-18-4.8-171.8-50.8-380.2-259.3C122.6 497.3 71.9 338.3 66.4 319.6c-9.4-23.7-11.3-52.6-5.2-81.3 6.1-28.8 19.7-54.9 38.2-73.4L178 86.3c18.4-18.4 42.2-28.6 67-28.6 28.7 0 55.7 13.7 74.2 37.5l115.1 148.4c19.4 25 21.7 65.8 5.4 93l-56.2 93.1c5.3 17.6 23.6 61.2 85.2 126.5 68.5 64.9 111.1 81 125.1 84.7l93.6-56.5c11.4-6.9 26.2-10.7 41.6-10.7 19.4 0 38.1 5.8 51.3 16l148.4 115.2c22.4 17.4 35.6 41.7 37.3 68.5 1.7 26.8-8.4 52.6-28.4 72.6l-78.5 78.5C833.4 950.3 792 966.3 751.1 966.3L751.1 966.3zM244.9 107.3c-11.5 0-22.8 5-31.9 14l-78.5 78.5c-24.1 24.1-34.3 71.8-21.7 102.1l0.1 0.1 0.9 2.6 0 0.2c0.4 1.6 46 159.4 245.9 359.3 206.4 206.4 357.1 246.2 358.6 246.6l0.3 0.1 2.4 0.7 0.1 0.1c8.6 3.3 19 5 30 5 27.8 0 56.5-10.7 73-27.2l78.5-78.5c9.8-9.8 14.8-22 14-34.4-0.8-12.4-7.3-23.9-18.2-32.4L750 628.9c-4.6-3.6-12.6-5.8-20.8-5.8-6.4 0-12.2 1.3-16.1 3.7l-107.6 64.9-7-0.1c-6.1-0.1-62.3-3.4-164.7-100.4l-0.2-0.2C340.8 493 333 434 332.4 427.6l-0.7-8.1L397.2 311c6-9.9 4.9-27.8-2.1-36.9L279.9 125.6C270.8 113.8 258.3 107.3 244.9 107.3z" fill="#8992c8" p-id="35140"></path></svg>