<?xml version="1.0" standalone="no"?><!DOCTYPE svg PUBLIC "-//W3C//DTD SVG 1.1//EN" "http://www.w3.org/Graphics/SVG/1.1/DTD/svg11.dtd"><svg t="1749026613161" class="icon" viewBox="0 0 1141 1024" version="1.1" xmlns="http://www.w3.org/2000/svg" p-id="15015" xmlns:xlink="http://www.w3.org/1999/xlink" width="35.65625" height="32"><path d="M1011.220746 1023.668071H130.613938c-39.333549 0-71.364668-32.031118-71.364667-71.364667V71.696596c0-39.333549 32.031118-71.364668 71.364667-71.364667h880.606808c39.333549 0 71.364668 32.031118 71.364667 71.364667v880.606808c0 39.333549-32.031118 71.364668-71.364667 71.364667z" fill="#5672cd" p-id="15016" data-spm-anchor-id="a313x.search_index.0.i0.bac03a81FwPq5e" class="selected"></path><path d="M533.741329 769.90859c-162.313128 0-295.084603-132.771475-295.084603-295.084603 0-162.313128 132.771475-295.084603 295.084603-295.084603 162.313128 0 295.084603 132.771475 295.084603 295.084603-0.165964 162.313128-132.937439 295.084603-295.084603 295.084603z m0-516.315073c-121.651864 0-221.23047 99.578606-221.23047 221.23047 0 121.651864 99.578606 221.23047 221.23047 221.23047s221.23047-99.578606 221.23047-221.23047c0-121.651864-99.578606-221.23047-221.23047-221.23047z m0 0" fill="#ffffff" p-id="15017" data-spm-anchor-id="a313x.search_index.0.i2.bac03a81FwPq5e" class=""></path><path d="M865.670016 843.762723c-9.791896 0.331929-19.251864-3.81718-25.890437-11.119611L710.659319 703.688817c-7.136467-6.804538-11.119611-16.098541-11.119611-25.890438s3.983144-19.0859 11.119611-25.890437c6.804538-6.970502 16.098541-11.119611 25.890438-11.119611s19.0859 3.983144 25.724473 11.119611l129.120259 129.120259c7.136467 6.804538 11.119611 16.098541 11.119611 25.890438s-3.983144 19.0859-11.119611 25.890437c-6.472609 7.136467-15.932577 11.119611-25.724473 10.953647z m0 0" fill="#FFFFFF" p-id="15018" data-spm-anchor-id="a313x.search_index.0.i6.bac03a81FwPq5e" class=""></path></svg>