<?xml version="1.0" standalone="no"?><!DOCTYPE svg PUBLIC "-//W3C//DTD SVG 1.1//EN" "http://www.w3.org/Graphics/SVG/1.1/DTD/svg11.dtd"><svg t="1749027181632" class="icon" viewBox="0 0 1027 1024" version="1.1" xmlns="http://www.w3.org/2000/svg" p-id="35585" xmlns:xlink="http://www.w3.org/1999/xlink" width="32.09375" height="32"><path d="M933.415 0H90.585C39.385 0 0 39.385 0 90.585v846.769C0 984.615 39.385 1024 90.585 1024h846.769c47.261 0 90.584-39.385 90.584-90.585V90.585C1024 39.385 984.615 0 933.415 0zM307.2 267.815c0-27.569 19.692-47.261 47.262-47.261H665.6c27.57 0 47.262 19.692 47.262 47.261v126.031c0 27.57-19.693 47.262-47.262 47.262H354.462c-27.57 0-47.262-19.693-47.262-47.262v-126.03zM256 527.754c0-3.939 3.938-3.939 3.938-3.939h216.616c3.938 0 3.938-3.938 3.938-3.938v-47.262c0-3.938 3.939-3.938 3.939-3.938h43.323c3.938 0 3.938 3.938 3.938 3.938v43.323c0 3.939 3.939 3.939 3.939 3.939h216.615c3.939 0 3.939 3.938 3.939 3.938v94.523c0 3.939-3.939 3.939-3.939 3.939h-43.323c-3.938 0-3.938-3.939-3.938-3.939v-43.323c0-3.938-3.939-3.938-3.939-3.938H539.57c-3.938 0-3.938 3.938-3.938 3.938v43.323c0 3.939-3.939 3.939-3.939 3.939H488.37c-3.938 0-3.938-3.939-3.938-3.939v-43.323c0-3.938-3.939-3.938-3.939-3.938H315.077c-3.939 0-3.939 3.938-3.939 3.938v43.323c0 3.939-3.938 3.939-3.938 3.939h-43.323c-3.939 0-3.939-3.939-3.939-3.939v-90.584z m94.523 248.123c0 15.754-11.815 27.57-27.57 27.57H200.863c-15.754 0-27.57-11.816-27.57-27.57v-78.77c0-15.753 11.816-27.569 27.57-27.569h122.092c15.754 0 27.57 11.816 27.57 27.57v78.769z m244.185 0c0 15.754-11.816 27.57-27.57 27.57H445.046c-15.754 0-27.57-11.816-27.57-27.57v-78.77c0-15.753 11.816-27.569 27.57-27.569h122.092c15.754 0 27.57 11.816 27.57 27.57v78.769z m248.123 0c0 15.754-11.816 27.57-27.57 27.57H693.17c-15.754 0-27.569-11.816-27.569-27.57v-78.77c0-15.753 11.815-27.569 27.57-27.569h122.092c15.753 0 27.569 11.816 27.569 27.57v78.769z" fill="#5672cd" p-id="35586" data-spm-anchor-id="a313x.search_index.0.i17.bac03a81eKwpsG" class=""></path></svg>