<svg t="1721021640431" class="icon" viewBox="0 0 1024 1024" version="1.1" xmlns="http://www.w3.org/2000/svg" p-id="32445" width="32" height="32"><path d="M565.344 106.656a32 32 0 0 0-64 0v53.472c-71.392 1.792-137.12 21.376-186.592 53.664-51.616 33.696-88.96 83.968-88.96 144.128 0 26.944 5.12 52.704 17.472 75.936 12.448 23.36 31.296 42.368 55.904 57.056 48.032 28.608 118.72 41.248 212.832 41.248 91.008 0 153.312 11.904 192 34.24 18.72 10.784 31.52 23.808 39.936 39.136 8.448 15.456 13.408 35.104 13.408 60.576 0 45.248-22.432 76.928-64.256 99.136-43.616 23.168-106.976 34.784-181.088 34.784-71.808 0-135.232-17.472-179.68-44.064-45.088-26.976-65.664-59.744-65.664-89.856a32 32 0 0 0-64 0c0 61.536 41.504 111.712 96.8 144.8 53.504 32 124.608 51.392 201.856 53.024v53.44a32 32 0 0 0 64 0V862.08c59.104-4.512 113.984-17.024 157.792-40.288 58.56-31.104 98.208-82.4 98.208-155.68 0-33.824-6.624-64.512-21.28-91.296-14.72-26.912-36.576-47.968-64.064-63.84-53.728-31.008-130.112-42.816-224-42.816-90.784 0-147.2-12.64-180.064-32.224-15.808-9.408-25.856-20.256-32.192-32.16-6.4-12.032-9.952-26.976-9.952-45.856 0-31.456 19.584-64.16 59.936-90.528C389.792 241.216 447.072 224 511.968 224s122.176 17.216 162.272 43.392c40.384 26.368 59.936 59.072 59.936 90.528a32 32 0 0 0 64 0c0-60.16-37.344-110.432-88.96-144.128-39.424-25.728-89.184-43.424-143.904-50.432V106.656z" p-id="32446" fill="#ffffff"></path></svg>